HIERARCHY
ROOT Hips
{
  OFFSET 267.745 86.9975 -272.335
  CHANNELS 6 Xposition Yposition Zposition Zrotation Xrotation Yrotation
  JOINT LeftUpLeg
  {
    OFFSET 8.64259 1.95398 -2.38835
    CHANNELS 3 Zrotation Xrotation Yrotation
    JOINT LeftLeg
    {
      OFFSET 43.7702 0 0
      CHANNELS 3 Zrotation Xrotation Yrotation
      JOINT LeftFoot
      {
        OFFSET 40.6238 0 0
        CHANNELS 3 Zrotation Xrotation Yrotation
        JOINT LeftToeBase
        {
          OFFSET 12.7242 0 0
          CHANNELS 3 Zrotation Xrotation Yrotation
          End Site
          {
            OFFSET 0 0 0
          }
        }
      }
    }
  }
  JOINT RightUpLeg
  {
    OFFSET -8.2249 1.95398 -2.59336
    CHANNELS 3 Zrotation Xrotation Yrotation
    JOINT RightLeg
    {
      OFFSET 43.5653 0 0
      CHANNELS 3 Zrotation Xrotation Yrotation
      JOINT RightFoot
      {
        OFFSET 40.6238 0 0
        CHANNELS 3 Zrotation Xrotation Yrotation
        JOINT RightToeBase
        {
          OFFSET 12.7242 0 0
          CHANNELS 3 Zrotation Xrotation Yrotation
          End Site
          {
            OFFSET 0 0 0
          }
        }
      }
    }
  }
  JOINT Spine
  {
    OFFSET 0.165834 0.87714 6.61349
    CHANNELS 3 Zrotation Xrotation Yrotation
    JOINT Spine1
    {
      OFFSET 7.38963 1.71661e-005 0
      CHANNELS 3 Zrotation Xrotation Yrotation
      JOINT Spine2
      {
        OFFSET 11.9445 1.14441e-005 0
        CHANNELS 3 Zrotation Xrotation Yrotation
        JOINT Spine3
        {
          OFFSET 14.7254 4.19617e-005 0
          CHANNELS 3 Zrotation Xrotation Yrotation
          JOINT Spine4
          {
            OFFSET 10.9679 0 0
            CHANNELS 3 Zrotation Xrotation Yrotation
            JOINT RightShoulder
            {
              OFFSET 2.46616 -1.6653 3.69651
              CHANNELS 3 Zrotation Xrotation Yrotation
              JOINT RightArm
              {
                OFFSET 13.0012 0 0
                CHANNELS 3 Zrotation Xrotation Yrotation
                JOINT RightForeArm
                {
                  OFFSET 28.7848 1.52588e-005 0
                  CHANNELS 3 Zrotation Xrotation Yrotation
                  JOINT RightHand
                  {
                    OFFSET 26.5688 1.52588e-005 0
                    CHANNELS 3 Zrotation Xrotation Yrotation
                    End Site
                    {
                      OFFSET 0 0 0
                    }
                  }
                }
              }
            }
            JOINT LeftShoulder
            {
              OFFSET 2.38034 -1.29275 -3.7523
              CHANNELS 3 Zrotation Xrotation Yrotation
              JOINT LeftArm
              {
                OFFSET 16.3182 6.10352e-005 0
                CHANNELS 3 Zrotation Xrotation Yrotation
                JOINT LeftForeArm
                {
                  OFFSET 27.0901 0 0
                  CHANNELS 3 Zrotation Xrotation Yrotation
                  JOINT LeftHand
                  {
                    OFFSET 24.5451 1.52588e-005 0
                    CHANNELS 3 Zrotation Xrotation Yrotation
                    End Site
                    {
                      OFFSET 0 0 0
                    }
                  }
                }
              }
            }
            JOINT Neck
            {
              OFFSET 5.0226 -0.0266342 0
              CHANNELS 3 Zrotation Xrotation Yrotation
              JOINT Head
              {
                OFFSET 6.69364 2.86102e-005 0
                CHANNELS 3 Zrotation Xrotation Yrotation
                End Site
                {
                  OFFSET 0 0 0
                }
              }
            }
          }
        }
      }
    }
  }
}
MOTION
Frames:	6
Frame Time:	0.0416667
-315.31 81.7218 -279.061 -91.2828 36.8695 -92.246 -166.948 15.5315 103.555 -63.5884 10.5944 -2.80954 50.015 -12.382 -11.0678 129.805 -42.8196 -30.5395 178.129 28.9335 78.1372 39.5809 74.5224 -133.013 -30.0938 37.5938 42.5775 -31.994 78.5015 -71.032 -14.1274 7.03903 -102.057 9.24273 -33.4957 -21.6381 -2.10942 -34.3945 -20.0513 -25.5367 -25.7172 -30.6389 -5.52402 -25.7172 -30.6389 -8.25402 -23.9697 131.629 154.963 -32.4939 -60.2178 6.69706 -18.339 -126.487 125.593 49.2278 21.0827 175.13 -47.3636 -32.6072 -25.9448 12.8378 -99.642 9.08545 44.1206 -28.7761 2.67101 -3.03307 -64.8728 23.2714 -37.7162 -27.5881 4.45744 -31.589 -43.8898 
-315.718 81.5843 -279.52 -91.0317 36.8089 -91.9623 -166.733 15.567 104.237 -63.5481 10.445 -2.59959 49.5178 -12.5795 -11.6608 129.085 -43.9755 -32.2551 178.327 29.6595 78.5143 39.2718 74.773 -132.465 -30.1578 37.4882 42.5607 -37.557 78.713 -65.4598 -14.1249 7.0771 -102.065 9.15154 -33.4871 -21.6894 -2.20144 -34.3872 -20.1034 -25.6183 -25.6964 -30.6815 -5.60567 -25.6965 -30.6815 -8.50737 -24.4819 131.766 155.69 -32.1227 -59.6824 6.22141 -18.341 -126.784 125.471 48.6438 20.8095 175.332 -46.825 -32.7303 -25.0331 12.29 -99.7769 8.42573 43.0851 -28.322 2.707 -3.02892 -64.4467 22.9744 -37.8491 -27.7115 4.61395 -31.777 -43.6103 
-316.869 81.1758 -280.81 -90.3121 36.635 -91.1442 -166.121 15.6966 106.185 -63.396 10.1478 -2.01296 48.1348 -13.0625 -13.2306 126.861 -46.8976 -37.0212 178.875 31.7185 79.5537 36.0481 75.9752 -128.538 -30.5446 37.6271 42.9902 -56.4348 78.5883 -46.5117 -14.1184 7.1869 -102.089 8.88737 -33.4654 -21.8389 -2.46904 -34.3716 -20.2555 -25.8539 -25.6374 -30.8057 -5.84125 -25.6374 -30.8057 -9.29173 -25.9814 132.126 157.725 -30.9719 -58.1725 4.89793 -18.3183 -127.608 125.023 47.0018 20.0933 175.855 -45.35 -33.1004 -22.2322 10.7622 -100.077 6.69348 39.8995 -27.2495 2.83906 -3.0295 -63.1875 22.1202 -38.2272 -28.0733 5.05428 -32.3077 -42.8159 
-318.632 80.4846 -282.779 -89.1967 36.3645 -89.7841 -165.181 16.0124 109.284 -63.0906 10.1081 -1.12728 46.1139 -13.6027 -15.3114 123.143 -50.4972 -43.9886 179.683 34.8605 81.0876 30.0621 77.7254 -121.107 -30.7511 36.9707 43.5868 -86.6958 74.799 -15.9222 -14.2449 7.7648 -102.347 7.47449 -33.7643 -22.9527 -3.89318 -34.7175 -21.3616 -27.1077 -25.6328 -31.8892 -7.09508 -25.6328 -31.8892 -0.397375 -20.5472 138.486 154.396 -28.6661 -63.4399 3.49384 -20.7847 -128.455 123.762 44.6508 19.3637 178.139 -42.7333 -32.676 -14.5916 5.32498 -98.6689 4.42971 32.7108 -26.0353 3.08065 -3.03634 -61.0384 21.561 -37.3016 -29.4494 5.15682 -31.4449 -41.8435 
-320.863 79.4849 -285.258 -87.8192 36.0101 -87.7158 -164.039 16.6709 113.554 -62.685 10.8913 -0.0106517 43.816 -13.9998 -17.367 118.319 -53.8286 -52.0763 -179.385 38.7156 82.9946 16.2992 79.9158 -104.742 -29.9766 34.2166 44.4271 -109.22 60.87 7.99334 -12.0205 2.91975 -98.2647 20.2221 -27.8937 -10.8538 8.84362 -28.3401 -9.52701 -15.2458 -23.34 -19.027 4.76689 -23.34 -19.027 162.099 12.7778 70.3982 137.987 41.4577 39.879 -8.30829 13.9424 -121.344 125.284 40.0926 16.0291 152.914 -45.0526 -50.3048 -61.6017 29.8628 -40.8466 2.85865 42.2541 -30.1315 4.56468 -3.61696 -58.2224 14.6145 -61.6002 -14.8574 15.0875 -59.6338 -40.9461 
-323.435 78.146 -288.085 -86.2996 35.56 -84.8629 -162.921 17.7896 118.965 -62.2853 12.945 1.23406 41.6043 -14.1929 -19.0027 112.862 -56.4465 -60.4549 -178.314 42.95 84.9136 -32.0973 79.286 -52.1215 -26.6889 28.218 46.9669 -114.722 26.087 20.5367 -12.0919 3.14773 -98.3578 19.6904 -28.0811 -11.1794 8.31412 -28.5414 -9.84308 -15.7685 -23.425 -19.3892 4.24415 -23.425 -19.3892 158.499 12.7293 68.2993 139.995 46.1132 38.2216 -10.6098 14.0623 -121.732 121.902 37.3061 15.8977 152.66 -43.7364 -50.9804 -53.9021 37.9816 -43.5 0.842261 29.7324 -31.0202 5.63762 -3.80888 -54.1139 10.9638 -63.0281 -17.485 15.6908 -61.0276 -39.607 
